<svg enable-background="new 0 0 50 50" viewBox="0 0 50 50" xmlns="http://www.w3.org/2000/svg"><path d="m43.1 18v14h-17v2h20v-16z" fill="#4de0f9"/><path d="m45.7 33.6h-38v-12.6l-4.2-4.6h42.2zm-36.8-1.2h35.6v-14.8h-38.3l2.7 3z" fill="#0d5fc3"/><path d="m10.7 19.2v11.8h2.6v-.7c0-1.9 1.6-3.5 3.5-3.5s3.5 1.6 3.5 3.5v.7h2.2v-11.8zm6 6.8c-1.4 0-2.5-1.2-2.5-2.6s1.2-2.5 2.6-2.5 2.5 1.2 2.5 2.6-1.2 2.5-2.6 2.5z" fill="#4de0f9"/><g fill="#0d5fc3"><path d="m16.8 26.6c-.9 0-1.7-.3-2.2-.9-.6-.6-.9-1.4-.9-2.2 0-1.7 1.4-3.1 3.2-3.1 1.7 0 3.1 1.4 3.1 3.2-.1 1.6-1.5 3-3.2 3zm0-5.1c-1.1 0-1.9.9-1.9 1.9 0 .5.2 1 .6 1.4s.8.6 1.4.6c1.1 0 1.9-.9 1.9-1.9h.6-.6c-.1-1.1-.9-2-2-2z"/><path d="m20.9 30.9h-1.2v-.7c0-.8-.3-1.5-.8-2.1s-1.3-.9-2-.9c-1.6 0-2.9 1.3-2.9 2.9v.7h-1.2v-.7c0-2.3 1.9-4.1 4.2-4.1 1.1 0 2.1.5 2.9 1.2s1.2 1.8 1.2 2.9v.8z"/><path d="m26.3 21h3.5v1.2h-3.5z"/><path d="m26.3 24.4h3.5v1.2h-3.5z"/><path d="m26.3 27.9h3.5v1.2h-3.5z"/><path d="m32 21h6.4v1.2h-6.4z"/><path d="m32 24.4h8.7v1.2h-8.7z"/><path d="m32 27.9h8.7v1.2h-8.7z"/></g></svg>